<?xml version="1.0" standalone="no"?>
<!DOCTYPE svg PUBLIC "-//W3C//DTD SVG 20010904//EN"
 "http://www.w3.org/TR/2001/REC-SVG-20010904/DTD/svg10.dtd">
<svg version="1.0" xmlns="http://www.w3.org/2000/svg"
 width="828.000000pt" height="828.000000pt" viewBox="0 0 828.000000 828.000000"
 preserveAspectRatio="xMidYMid meet">
<metadata>
Created by potrace 1.14, written by Peter Selinger 2001-2017
</metadata>
<g transform="translate(0.000000,828.000000) scale(0.100000,-0.100000)"
fill="#000000" stroke="none">
<path d="M3969 5845 l-434 -565 -6 68 c-4 37 -7 217 -8 400 l-1 332 -165 0
c-158 0 -165 -1 -165 -20 0 -19 -7 -20 -125 -20 l-125 0 0 -45 c0 -39 3 -45
21 -45 22 0 22 -1 17 -197 -4 -131 -9 -198 -17 -201 -6 -2 -11 -19 -11 -38 l0
-34 69 0 68 0 7 -247 c9 -369 11 -1567 2 -1581 -12 -19 -44 -14 -60 11 -16 23
-138 367 -221 617 -26 80 -115 324 -196 544 -82 219 -149 401 -149 405 0 4 23
17 50 28 49 21 50 22 50 66 0 34 -5 48 -21 59 -17 11 -20 20 -15 43 6 30 7 30
68 27 l61 -4 -6 84 c-4 45 -7 111 -7 146 l0 62 -51 0 c-46 0 -55 -4 -90 -39
-33 -33 -39 -45 -39 -82 0 -24 -9 -75 -18 -114 -16 -61 -21 -70 -41 -70 -21 0
-31 20 -103 203 -43 112 -90 220 -103 240 -14 20 -25 40 -25 44 0 5 22 8 49 8
l49 0 17 51 c9 28 15 52 14 53 -2 2 -476 7 -1054 10 l-1050 7 35 -33 c19 -18
53 -49 76 -68 l41 -35 -13 -300 c-19 -422 -73 -1504 -80 -1602 l-6 -83 -45 0
c-24 0 -82 -10 -128 -21 -80 -20 -85 -23 -85 -48 0 -15 7 -36 15 -47 12 -16
14 -121 15 -736 l0 -718 38 0 c35 0 41 -4 70 -49 40 -61 92 -107 151 -135 63
-29 202 -29 281 -1 65 24 155 108 184 172 l18 41 41 -14 c22 -8 46 -19 52 -24
6 -5 100 -11 209 -12 l198 -3 -162 -210 c-89 -115 -171 -222 -182 -237 l-19
-28 3680 0 c2025 0 3681 4 3681 8 0 9 -3848 4535 -3859 4540 -4 1 -203 -252
-442 -563z m2260 -1748 c992 -1166 1801 -2121 1798 -2123 -2 -2 -1552 -3
-3445 -2 l-3441 3 139 181 139 181 92 6 c51 4 237 7 415 7 279 0 328 -2 358
-16 32 -16 36 -16 68 3 18 11 74 28 125 38 l92 19 89 -86 c68 -65 102 -90 145
-107 237 -88 461 -22 583 173 22 36 33 46 49 42 11 -3 37 -6 58 -6 l37 0 0
-100 0 -100 753 0 c812 0 856 3 1075 55 61 14 118 33 128 41 18 13 18 15 1 28
-14 11 -142 15 -685 20 -367 3 -769 9 -893 12 l-226 6 -7 82 c-3 44 -6 450 -6
901 0 451 -3 877 -7 948 l-6 127 -64 0 -63 0 0 328 0 327 441 573 c243 316
445 570 449 565 4 -4 818 -961 1809 -2126z m-4198 1818 c34 -18 50 -47 129
-225 72 -165 362 -912 356 -918 -3 -2 -22 8 -43 22 -42 29 -88 34 -113 11 -8
-8 -33 -21 -53 -30 -36 -15 -38 -15 -62 9 -32 32 -23 58 41 129 47 53 55 89
20 95 -13 3 -67 -44 -188 -164 -173 -174 -194 -205 -139 -212 18 -3 38 10 80
51 67 65 83 72 121 52 37 -19 44 -44 29 -95 l-13 -41 111 -112 111 -112 26
-178 c15 -99 31 -187 36 -197 23 -42 187 -137 277 -160 l50 -13 9 -108 9 -107
-62 -31 c-67 -33 -79 -30 -75 21 1 15 -3 28 -9 28 -11 0 -120 -81 -153 -114
-18 -18 -18 -20 -1 -32 16 -12 12 -15 -37 -37 -49 -22 -72 -25 -231 -29 -97
-3 -177 -2 -177 1 0 3 -9 80 -20 171 -11 91 -20 202 -20 247 l0 81 -31 11
c-18 6 -79 11 -136 11 -100 0 -104 1 -114 24 -9 20 -8 33 10 68 11 25 21 56
21 70 0 34 -75 103 -126 117 -61 17 -182 13 -243 -8 -42 -15 -72 -18 -125 -14
-65 5 -74 3 -111 -22 -25 -18 -41 -23 -43 -15 -2 6 -15 15 -28 20 -19 7 -24
17 -24 43 0 18 -8 43 -17 56 -12 18 -17 47 -17 105 -1 90 -23 141 -75 172 -26
15 -27 19 -23 75 5 73 -1 99 -34 138 -32 38 -77 47 -126 26 -32 -13 -38 -20
-38 -45 0 -17 36 -174 80 -350 44 -176 80 -333 80 -349 0 -17 -5 -42 -12 -56
-11 -24 -15 -25 -90 -25 -63 0 -78 -3 -78 -15 0 -13 -26 -15 -175 -15 l-175 0
0 63 c0 34 18 469 40 967 22 498 40 920 40 939 l0 34 767 -7 c625 -6 772 -10
794 -21z m-86 -2135 c0 -13 -94 -15 -779 -18 -465 -1 -784 2 -789 7 -30 30 13
31 786 29 687 -3 782 -5 782 -18z m-1657 -320 c85 0 104 -3 109 -16 10 -27
-17 -34 -130 -34 -104 0 -177 15 -177 37 0 22 23 30 58 22 20 -5 83 -9 140 -9z
m102 -137 c28 -27 -13 -43 -114 -43 -121 0 -195 21 -184 52 8 20 276 13 298
-9z m2958 -50 c3 -10 -33 -13 -155 -13 -306 0 -466 -38 -602 -143 -151 -117
-228 -303 -251 -608 -8 -111 -15 -138 -32 -121 -11 11 7 226 28 325 8 38 14
70 14 73 0 2 -366 4 -813 4 l-813 0 -30 31 c-39 41 -89 71 -144 85 l-45 13 75
0 c41 0 472 8 956 18 l881 17 29 46 c67 105 194 199 329 245 91 30 214 43 394
42 129 -2 175 -5 179 -14z m-2954 -73 c5 -5 6 -16 2 -25 -5 -14 -23 -16 -141
-13 -109 2 -137 6 -151 20 -9 9 -14 20 -11 25 7 11 288 4 301 -7z m-126 -118
c97 -3 125 -8 129 -19 10 -26 -18 -33 -130 -33 -104 0 -177 15 -177 37 0 17
25 33 40 27 8 -4 70 -9 138 -12z m2841 -270 c171 -105 127 -357 -69 -401 -148
-33 -298 117 -260 260 41 155 198 222 329 141z m-2560 -125 c107 -71 132 -210
55 -313 -31 -42 -116 -84 -168 -84 -109 1 -215 106 -216 213 0 76 53 161 122
196 61 31 150 26 207 -12z"/>
<path d="M3830 4750 l0 -150 115 0 115 0 0 35 0 35 60 0 c33 0 60 -3 60 -6 0
-3 -81 -136 -180 -295 l-180 -290 0 -110 0 -109 360 0 360 0 0 165 0 165 -115
0 -115 0 0 -50 0 -50 -76 0 -76 0 20 33 c11 17 95 153 186 301 l166 269 0 104
0 103 -350 0 -350 0 0 -150z"/>
<path d="M4570 4785 l0 -115 34 0 35 0 3 -332 c3 -325 4 -334 26 -380 14 -29
38 -56 60 -70 35 -22 48 -23 248 -26 231 -4 274 2 325 45 57 49 59 60 59 428
l0 335 35 0 35 0 0 115 0 115 -175 0 -175 0 0 -405 0 -405 -75 0 -75 0 0 405
0 405 -180 0 -180 0 0 -115z"/>
<path d="M5450 4225 l0 -65 130 0 130 0 0 65 0 65 -130 0 -130 0 0 -65z"/>
<path d="M3820 3454 l0 -116 37 4 37 3 82 -405 c46 -223 83 -406 84 -407 0 -2
90 -3 199 -3 198 0 199 0 204 23 4 12 42 189 87 392 44 204 83 377 85 385 4
12 15 15 40 12 l35 -4 0 116 0 116 -215 0 -215 0 0 -116 0 -116 35 4 c27 3 35
0 35 -12 0 -8 -20 -118 -43 -244 l-43 -228 -60 353 -60 354 -162 3 -162 2 0
-116z"/>
<path d="M4760 3454 l0 -116 35 4 35 4 0 -293 0 -293 -35 0 -35 0 0 -115 0
-115 210 0 210 0 0 115 0 115 -30 0 -30 0 0 293 0 294 30 -5 30 -4 0 116 0
116 -210 0 -210 0 0 -116z"/>
<path d="M5250 3454 l0 -116 35 4 35 4 0 -293 0 -293 -35 0 -35 0 0 -115 0
-115 370 0 370 0 0 205 0 205 -135 0 -135 0 0 -90 0 -90 -55 0 -55 0 0 293 0
293 35 -4 35 -4 0 116 0 116 -215 0 -215 0 0 -116z"/>
<path d="M2900 2778 c-59 -41 -75 -72 -75 -148 0 -54 4 -75 21 -96 37 -51 70
-68 137 -72 53 -3 67 0 97 20 80 54 105 156 59 238 -44 77 -167 107 -239 58z
m132 -105 c39 -35 11 -103 -43 -103 -30 0 -59 31 -59 64 0 48 64 73 102 39z"/>
<path d="M364 2666 c-105 -46 -134 -181 -57 -267 104 -116 293 -42 293 113 -1
119 -127 201 -236 154z m122 -122 c23 -34 9 -75 -29 -88 -33 -12 -55 -1 -76
36 -36 62 66 112 105 52z"/>
</g>
</svg>
